<svg xmlns="http://www.w3.org/2000/svg" xmlns:svg="http://www.w3.org/2000/svg" id="svg2" width="888" height="456" version="1.1" viewBox="0 0 888 456" xml:space="preserve"><metadata id="metadata8"/><defs id="defs6"><clipPath id="clipPath18" clipPathUnits="userSpaceOnUse"><path id="path16" d="M 0,0 H 792 V 612 H 0 Z"/></clipPath><clipPath id="clipPath22" clipPathUnits="userSpaceOnUse"><path style="clip-rule:evenodd" id="path20" d="M 0,0.028 H 791.971 V 611.999 H 0 Z"/></clipPath></defs><g id="g10" transform="matrix(1.3333333,0,0,-1.3333333,0,456)"><g id="g12" transform="translate(-62,-234)"><g id="g316"><g id="g314" clip-path="url(#clipPath18)"><g id="g312"><g id="g310" clip-path="url(#clipPath22)"><path id="path24" style="fill:#fff;fill-opacity:1;fill-rule:evenodd;stroke:none" d="M 0,612 H 791.972 V 0.028 L 0,0.028 Z"/><path id="path26" style="fill:#fff;fill-opacity:1;fill-rule:evenodd;stroke:none" d="m 409.011,513.836 h -23.102 v 21.458 h 46.204 v -21.458 z"/><g id="g30"><path id="path28" style="fill:none;stroke:#000;stroke-width:.75;stroke-linecap:butt;stroke-linejoin:round;stroke-miterlimit:10;stroke-dasharray:none;stroke-opacity:1" d="m 409.011,513.836 h -23.102 v 21.458 h 46.204 v -21.458 z"/></g><g id="g36"><text id="text34" style="font-variant:normal;font-weight:400;font-size:13.01099968px;font-family:'Liberation Sans';-inkscape-font-specification:LiberationSans;writing-mode:lr-tb;fill:#000;fill-opacity:1;fill-rule:nonzero;stroke:none" transform="matrix(1,0,0,-1,393.307,519.987)"><tspan id="tspan32" x="0 8.691 17.305 23.511" y="0">SALT</tspan></text></g><path id="path38" style="fill:#fff;fill-opacity:1;fill-rule:evenodd;stroke:none" d="m 652.28,513.836 h -29.083 v 21.458 h 58.167 v -21.458 z"/><g id="g42"><path id="path40" style="fill:none;stroke:#000;stroke-width:.75;stroke-linecap:butt;stroke-linejoin:round;stroke-miterlimit:10;stroke-dasharray:none;stroke-opacity:1" d="m 652.28,513.836 h -29.083 v 21.458 h 58.167 v -21.458 z"/></g><g id="g48"><text id="text46" style="font-variant:normal;font-weight:400;font-size:13.01099968px;font-family:'Liberation Sans';-inkscape-font-specification:LiberationSans;writing-mode:lr-tb;fill:#000;fill-opacity:1;fill-rule:nonzero;stroke:none" transform="matrix(1,0,0,-1,639.014,519.987)"><tspan id="tspan44" x="0 8.613 17.227" y="0">PVC</tspan></text></g><path id="path50" style="fill:#fff;fill-opacity:1;fill-rule:evenodd;stroke:none" d="m 486.397,513.836 h -54.595 v 21.458 h 109.162 v -21.458 z"/><g id="g54"><path id="path52" style="fill:none;stroke:#000;stroke-width:.75;stroke-linecap:butt;stroke-linejoin:round;stroke-miterlimit:10;stroke-dasharray:none;stroke-opacity:1" d="m 486.397,513.836 h -54.595 v 21.458 h 109.162 v -21.458 z"/></g><g id="g60"><text id="text58" style="font-variant:normal;font-weight:400;font-size:13.01099968px;font-family:'Liberation Sans';-inkscape-font-specification:LiberationSans;writing-mode:lr-tb;fill:#000;fill-opacity:1;fill-rule:nonzero;stroke:none" transform="matrix(1,0,0,-1,468.709,519.987)"><tspan id="tspan56" x="0 8.691 17.994 26.686" y="0">EDEK</tspan></text></g><g id="g66"><text id="text64" style="font-variant:normal;font-weight:400;font-size:10.00599957px;font-family:'Liberation Sans';-inkscape-font-specification:LiberationSans;writing-mode:lr-tb;fill:#000;fill-opacity:1;fill-rule:nonzero;stroke:none" transform="matrix(1,0,0,-1,404.504,537.506)"><tspan id="tspan62" x="0 5.593 11.097" y="0">32b</tspan></text></g><g id="g72"><text id="text70" style="font-variant:normal;font-weight:400;font-size:10.00599957px;font-family:'Liberation Sans';-inkscape-font-specification:LiberationSans;writing-mode:lr-tb;fill:#000;fill-opacity:1;fill-rule:nonzero;stroke:none" transform="matrix(1,0,0,-1,475.398,537.392)"><tspan id="tspan68" x="0 5.593 11.097 16.6" y="0">256b</tspan></text></g><g id="g78"><text id="text76" style="font-variant:normal;font-weight:400;font-size:10.00599957px;font-family:'Liberation Sans';-inkscape-font-specification:LiberationSans;writing-mode:lr-tb;fill:#000;fill-opacity:1;fill-rule:nonzero;stroke:none" transform="matrix(1,0,0,-1,643.209,537.392)"><tspan id="tspan74" x="0 5.503 11.007" y="0">64b</tspan></text></g><path id="path80" style="fill:#fff;fill-opacity:1;fill-rule:evenodd;stroke:none" d="m 191.197,410.627 h -57.6 v 35.546 h 115.2 v -35.546 z"/><g id="g84"><path id="path82" style="fill:none;stroke:#729fcf;stroke-width:.75;stroke-linecap:butt;stroke-linejoin:round;stroke-miterlimit:10;stroke-dasharray:none;stroke-opacity:1" d="m 191.197,410.627 h -57.6 v 35.546 h 115.2 v -35.546 z"/></g><g id="g90"><text id="text88" style="font-variant:normal;font-weight:400;font-size:14.99499989px;font-family:'Liberation Sans';-inkscape-font-specification:LiberationSans;writing-mode:lr-tb;fill:#000;fill-opacity:1;fill-rule:nonzero;stroke:none" transform="matrix(1,0,0,-1,162.113,423.213)"><tspan id="tspan86" x="0 9.987 19.883 29.87 40.666 49.768" y="0">PBKDF2</tspan></text></g><path id="path92" style="fill:none;stroke:#000;stroke-width:.1;stroke-linecap:butt;stroke-linejoin:miter;stroke-miterlimit:10;stroke-dasharray:none;stroke-opacity:1" d="m 97.2,427.323 h 23.811"/><path id="path94" style="fill:#000;fill-opacity:1;fill-rule:evenodd;stroke:none" d="m 133.2,427.323 -12.756,4.252 v -8.504 z"/><g id="g100"><text id="text98" style="font-variant:normal;font-weight:400;font-size:14.99499989px;font-family:'Liberation Sans';-inkscape-font-specification:LiberationSans;writing-mode:lr-tb;fill:#ce181e;fill-opacity:1;fill-rule:nonzero;stroke:none" transform="matrix(1,0,0,-1,66.813,421.597)"><tspan id="tspan96" x="0 9.897 14.08" y="0">PIN</tspan></text></g><path id="path102" style="fill:none;stroke:#000;stroke-width:.1;stroke-linecap:butt;stroke-linejoin:miter;stroke-miterlimit:10;stroke-dasharray:none;stroke-opacity:1" d="M 409.011,513.808 V 479.991 H 191.197 v -25.682"/><path id="path104" style="fill:#000;fill-opacity:1;fill-rule:evenodd;stroke:none" d="m 191.197,446.173 2.834,8.504 h -5.669 z"/><g id="g110"><text id="text108" style="font-variant:normal;font-weight:400;font-size:10.99800014px;font-family:'Liberation Sans';-inkscape-font-specification:LiberationSans;writing-mode:lr-tb;fill:#000;fill-opacity:1;fill-rule:nonzero;stroke:none" transform="matrix(1,0,0,-1,275.613,482.995)"><tspan id="tspan106" x="0 6.489 9.678 15.782 21.886 25.57 31.674 39.571 45.763 49.447 55.551 58.641 64.14 70.332 72.631" y="0">+ hardware salt</tspan></text></g><path id="path112" style="fill:#fff;fill-opacity:1;fill-rule:evenodd;stroke:none" d="M 447.165,417.458 H 410.57 v 21.459 h 73.162 v -21.459 z"/><g id="g116"><path id="path114" style="fill:none;stroke:#000;stroke-width:.75;stroke-linecap:butt;stroke-linejoin:round;stroke-miterlimit:10;stroke-dasharray:none;stroke-opacity:1" d="M 447.165,417.458 H 410.57 v 21.459 h 73.162 v -21.459 z"/></g><g id="g122"><text id="text120" style="font-variant:normal;font-weight:400;font-size:13.01099968px;font-family:'Liberation Sans';-inkscape-font-specification:LiberationSans;writing-mode:lr-tb;fill:#000;fill-opacity:1;fill-rule:nonzero;stroke:none" transform="matrix(1,0,0,-1,432.397,423.694)"><tspan id="tspan118" x="0 8.613 17.305 20.909" y="0">KEIV</tspan></text></g><path id="path124" style="fill:#fff;fill-opacity:1;fill-rule:evenodd;stroke:none" d="m 356.003,417.458 h -54.595 v 21.459 H 410.57 v -21.459 z"/><g id="g128"><path id="path126" style="fill:none;stroke:#000;stroke-width:.75;stroke-linecap:butt;stroke-linejoin:round;stroke-miterlimit:10;stroke-dasharray:none;stroke-opacity:1" d="m 356.003,417.458 h -54.595 v 21.459 H 410.57 v -21.459 z"/></g><g id="g134"><text id="text132" style="font-variant:normal;font-weight:400;font-size:13.01099968px;font-family:'Liberation Sans';-inkscape-font-specification:LiberationSans;writing-mode:lr-tb;fill:#000;fill-opacity:1;fill-rule:nonzero;stroke:none" transform="matrix(1,0,0,-1,342.992,423.694)"><tspan id="tspan130" x="0 8.691 17.305" y="0">KEK</tspan></text></g><g id="g140"><text id="text138" style="font-variant:normal;font-weight:400;font-size:10.00599957px;font-family:'Liberation Sans';-inkscape-font-specification:LiberationSans;writing-mode:lr-tb;fill:#000;fill-opacity:1;fill-rule:nonzero;stroke:none" transform="matrix(1,0,0,-1,345.005,441.099)"><tspan id="tspan136" x="0 5.593 11.097 16.6" y="0">256b</tspan></text></g><g id="g146"><text id="text144" style="font-variant:normal;font-weight:400;font-size:10.00599957px;font-family:'Liberation Sans';-inkscape-font-specification:LiberationSans;writing-mode:lr-tb;fill:#000;fill-opacity:1;fill-rule:nonzero;stroke:none" transform="matrix(1,0,0,-1,439.087,440.986)"><tspan id="tspan142" x="0 5.503 11.007" y="0">96b</tspan></text></g><path id="path148" style="fill:none;stroke:#000;stroke-width:.1;stroke-linecap:butt;stroke-linejoin:miter;stroke-miterlimit:10;stroke-dasharray:none;stroke-opacity:1" d="m 248.4,428.4 h 41.811"/><path id="path150" style="fill:#000;fill-opacity:1;fill-rule:evenodd;stroke:none" d="m 302.4,428.4 -12.756,4.252 v -8.504 z"/><path id="path152" style="fill:#fff;fill-opacity:1;fill-rule:evenodd;stroke:none" d="m 621.609,342.595 h -91.19 v 35.547 h 182.353 v -35.547 z"/><g id="g156"><path id="path154" style="fill:none;stroke:#729fcf;stroke-width:.75;stroke-linecap:butt;stroke-linejoin:round;stroke-miterlimit:10;stroke-dasharray:none;stroke-opacity:1" d="m 621.609,342.595 h -91.19 v 35.547 h 182.353 v -35.547 z"/></g><g id="g162"><text id="text160" style="font-variant:normal;font-weight:400;font-size:14.99499989px;font-family:'Liberation Sans';-inkscape-font-specification:LiberationSans;writing-mode:lr-tb;fill:#000;fill-opacity:1;fill-rule:nonzero;stroke:none" transform="matrix(1,0,0,-1,554.202,355.209)"><tspan id="tspan158" x="0 10.796 19.179 27.561 38.357 46.739 55.122 63.504 71.886 81.783 90.165 93.554 101.141 109.434 117.921 126.303" y="0">ChaCha20Poly1305</tspan></text></g><path id="path164" style="fill:none;stroke:#000;stroke-width:.1;stroke-linecap:butt;stroke-linejoin:miter;stroke-miterlimit:10;stroke-dasharray:none;stroke-opacity:1" d="M 356.003,417.43 V 354.954 H 522.369"/><path id="path166" style="fill:#000;fill-opacity:1;fill-rule:evenodd;stroke:none" d="M 530.504,354.954 522,357.789 v -5.669 z"/><path id="path168" style="fill:none;stroke:#000;stroke-width:.1;stroke-linecap:butt;stroke-linejoin:miter;stroke-miterlimit:10;stroke-dasharray:none;stroke-opacity:1" d="m 447.165,417.43 v -51.137 h 75.204"/><path id="path170" style="fill:#000;fill-opacity:1;fill-rule:evenodd;stroke:none" d="M 530.504,366.293 522,369.128 v -5.67 z"/><path id="path172" style="fill:none;stroke:#000;stroke-width:.1;stroke-linecap:butt;stroke-linejoin:miter;stroke-miterlimit:10;stroke-dasharray:none;stroke-opacity:1" d="M 486.397,513.808 V 464.4 h 135.212 v -78.123"/><path id="path174" style="fill:#000;fill-opacity:1;fill-rule:evenodd;stroke:none" d="m 621.609,378.142 2.835,8.504 h -5.669 z"/><g id="g180"><text id="text178" style="font-variant:normal;font-weight:400;font-size:10.00599957px;font-family:'Liberation Sans';-inkscape-font-specification:LiberationSans;writing-mode:lr-tb;fill:#000;fill-opacity:1;fill-rule:nonzero;stroke:none" transform="matrix(1,0,0,-1,506.211,368.986)"><tspan id="tspan176" x="0 2.101" y="0">iv</tspan></text></g><g id="g186"><text id="text184" style="font-variant:normal;font-weight:400;font-size:10.00599957px;font-family:'Liberation Sans';-inkscape-font-specification:LiberationSans;writing-mode:lr-tb;fill:#000;fill-opacity:1;fill-rule:nonzero;stroke:none" transform="matrix(1,0,0,-1,588.189,394.809)"><tspan id="tspan182" x="0 5.093 7.194 12.698 18.201 23.794" y="0">cipher</tspan></text></g><g id="g192"><text id="text190" style="font-variant:normal;font-weight:400;font-size:10.00599957px;font-family:'Liberation Sans';-inkscape-font-specification:LiberationSans;writing-mode:lr-tb;fill:#000;fill-opacity:1;fill-rule:nonzero;stroke:none" transform="matrix(1,0,0,-1,593.688,383.613)"><tspan id="tspan188" x="0 2.792 8.295 13.388" y="0">text</tspan></text></g><path id="path194" style="fill:#fff;fill-opacity:1;fill-rule:evenodd;stroke:none" d="m 675.978,250.186 h -27.326 v 21.458 h 54.624 v -21.458 z"/><g id="g198"><path id="path196" style="fill:none;stroke:#000;stroke-width:.75;stroke-linecap:butt;stroke-linejoin:round;stroke-miterlimit:10;stroke-dasharray:none;stroke-opacity:1" d="m 675.978,250.186 h -27.326 v 21.458 h 54.624 v -21.458 z"/></g><g id="g204"><text id="text202" style="font-variant:normal;font-weight:400;font-size:13.01099968px;font-family:'Liberation Sans';-inkscape-font-specification:LiberationSans;writing-mode:lr-tb;fill:#000;fill-opacity:1;fill-rule:nonzero;stroke:none" transform="matrix(1,0,0,-1,661.209,256.394)"><tspan id="tspan200" x="0 8.691 17.305 26.699" y="0">PVC’</tspan></text></g><path id="path206" style="fill:#fff;fill-opacity:1;fill-rule:evenodd;stroke:none" d="m 606.926,250.186 h -41.754 v 21.458 h 83.48 v -21.458 z"/><g id="g210"><path id="path208" style="fill:none;stroke:#000;stroke-width:.75;stroke-linecap:butt;stroke-linejoin:round;stroke-miterlimit:10;stroke-dasharray:none;stroke-opacity:1" d="m 606.926,250.186 h -41.754 v 21.458 h 83.48 v -21.458 z"/></g><g id="g216"><text id="text214" style="font-variant:normal;font-weight:400;font-size:13.01099968px;font-family:'Liberation Sans';-inkscape-font-specification:LiberationSans;writing-mode:lr-tb;fill:#000;fill-opacity:1;fill-rule:nonzero;stroke:none" transform="matrix(1,0,0,-1,594,256.394)"><tspan id="tspan212" x="0 8.613 17.305" y="0">SAK</tspan></text></g><g id="g222"><text id="text220" style="font-variant:normal;font-weight:400;font-size:10.00599957px;font-family:'Liberation Sans';-inkscape-font-specification:LiberationSans;writing-mode:lr-tb;fill:#000;fill-opacity:1;fill-rule:nonzero;stroke:none" transform="matrix(1,0,0,-1,597.288,239.811)"><tspan id="tspan218" x="0 5.503 11.007 16.51" y="0">128b</tspan></text></g><g id="g228"><text id="text226" style="font-variant:normal;font-weight:400;font-size:10.00599957px;font-family:'Liberation Sans';-inkscape-font-specification:LiberationSans;writing-mode:lr-tb;fill:#000;fill-opacity:1;fill-rule:nonzero;stroke:none" transform="matrix(1,0,0,-1,668.608,239.698)"><tspan id="tspan224" x="0 5.593 11.097" y="0">64b</tspan></text></g><path id="path230" style="fill:none;stroke:#000;stroke-width:.1;stroke-linecap:butt;stroke-linejoin:miter;stroke-miterlimit:10;stroke-dasharray:none;stroke-opacity:1" d="M 621.609,342.595 V 307.106 H 511.88 v -27.355"/><path id="path232" style="fill:#000;fill-opacity:1;fill-rule:evenodd;stroke:none" d="m 511.88,271.616 2.835,8.504 h -5.669 z"/><path id="path234" style="fill:none;stroke:#000;stroke-width:.1;stroke-linecap:butt;stroke-linejoin:miter;stroke-miterlimit:10;stroke-dasharray:none;stroke-opacity:1" d="m 621.609,342.595 v -35.489 h 54.369 v -27.355"/><path id="path236" style="fill:#000;fill-opacity:1;fill-rule:evenodd;stroke:none" d="m 675.978,271.616 2.835,8.504 h -5.67 z"/><g id="g242"><text id="text240" style="font-variant:normal;font-weight:400;font-size:10.00599957px;font-family:'Liberation Sans';-inkscape-font-specification:LiberationSans;writing-mode:lr-tb;fill:#000;fill-opacity:1;fill-rule:nonzero;stroke:none" transform="matrix(1,0,0,-1,628.299,309.402)"><tspan id="tspan238" x="0 2.702 4.903 8.205 13.298 16 18.791 24.295 29.798 35.391 38.093 43.686 46.388 49.179 57.484 64.088" y="0">first 64b of MAC</tspan></text></g><g id="g248"><text id="text246" style="font-variant:normal;font-weight:400;font-size:10.00599957px;font-family:'Liberation Sans';-inkscape-font-specification:LiberationSans;writing-mode:lr-tb;fill:#000;fill-opacity:1;fill-rule:nonzero;stroke:none" transform="matrix(1,0,0,-1,574.413,309.288)"><tspan id="tspan244" x="0 5.593 7.695 13.288 15.389 20.893 23.684 26.386 31.979 36.982" y="0">plain text</tspan></text></g><g id="g252"><path id="path250" style="fill:none;stroke:gray;stroke-width:.75;stroke-linecap:butt;stroke-linejoin:round;stroke-miterlimit:10;stroke-dasharray:none;stroke-opacity:1" d="M 541.417,490.904 H 360 v 79.2 h 362.835 v -79.2 z"/></g><g id="g258"><text id="text256" style="font-variant:normal;font-weight:400;font-size:13.01099968px;font-family:'Liberation Sans';-inkscape-font-specification:LiberationSans;writing-mode:lr-tb;fill:gray;fill-opacity:1;fill-rule:nonzero;stroke:none" transform="matrix(1,0,0,-1,687.997,558.198)"><tspan id="tspan254" x="0 7.911 10.799 18.007 24.513" y="0">Flash</tspan></text></g><g id="g264"><text id="text262" style="font-variant:normal;font-weight:400;font-size:10.00599957px;font-family:'Liberation Sans';-inkscape-font-specification:LiberationSans;writing-mode:lr-tb;fill:#000;fill-opacity:1;fill-rule:nonzero;stroke:none" transform="matrix(1,0,0,-1,501.109,342.51)"><tspan id="tspan260" x="0 5.003 10.596" y="0">key</tspan></text></g><path id="path266" style="fill:#fff;fill-opacity:1;fill-rule:evenodd;stroke:none" d="m 581.471,513.808 h -41.754 v 21.458 h 83.508 v -21.458 z"/><g id="g270"><path id="path268" style="fill:none;stroke:#000;stroke-width:.75;stroke-linecap:butt;stroke-linejoin:round;stroke-miterlimit:10;stroke-dasharray:none;stroke-opacity:1" d="m 581.471,513.808 h -41.754 v 21.458 h 83.508 v -21.458 z"/></g><g id="g276"><text id="text274" style="font-variant:normal;font-weight:400;font-size:13.01099968px;font-family:'Liberation Sans';-inkscape-font-specification:LiberationSans;writing-mode:lr-tb;fill:#000;fill-opacity:1;fill-rule:nonzero;stroke:none" transform="matrix(1,0,0,-1,564.208,519.987)"><tspan id="tspan272" x="0 8.691 17.305 25.918" y="0">ESAK</tspan></text></g><g id="g282"><text id="text280" style="font-variant:normal;font-weight:400;font-size:10.00599957px;font-family:'Liberation Sans';-inkscape-font-specification:LiberationSans;writing-mode:lr-tb;fill:#000;fill-opacity:1;fill-rule:nonzero;stroke:none" transform="matrix(1,0,0,-1,572.287,537.392)"><tspan id="tspan278" x="0 5.503 11.007 16.51" y="0">128b</tspan></text></g><path id="path284" style="fill:#fff;fill-opacity:1;fill-rule:evenodd;stroke:none" d="m 511.88,250.186 h -54.595 v 21.458 h 109.162 v -21.458 z"/><g id="g288"><path id="path286" style="fill:none;stroke:#000;stroke-width:.75;stroke-linecap:butt;stroke-linejoin:round;stroke-miterlimit:10;stroke-dasharray:none;stroke-opacity:1" d="m 511.88,250.186 h -54.595 v 21.458 h 109.162 v -21.458 z"/></g><g id="g294"><text id="text292" style="font-variant:normal;font-weight:400;font-size:13.01099968px;font-family:'Liberation Sans';-inkscape-font-specification:LiberationSans;writing-mode:lr-tb;fill:#000;fill-opacity:1;fill-rule:nonzero;stroke:none" transform="matrix(1,0,0,-1,498.614,256.394)"><tspan id="tspan290" x="0 9.303 17.994" y="0">DEK</tspan></text></g><g id="g300"><text id="text298" style="font-variant:normal;font-weight:400;font-size:10.00599957px;font-family:'Liberation Sans';-inkscape-font-specification:LiberationSans;writing-mode:lr-tb;fill:#000;fill-opacity:1;fill-rule:nonzero;stroke:none" transform="matrix(1,0,0,-1,500.91,239.811)"><tspan id="tspan296" x="0 5.503 11.007 16.6" y="0">256b</tspan></text></g><path id="path302" style="fill:none;stroke:#000;stroke-width:.1;stroke-linecap:butt;stroke-linejoin:miter;stroke-miterlimit:10;stroke-dasharray:none;stroke-opacity:1" d="m 603.071,307.106 v -10.63 h 3.855 v -16.725"/><path id="path304" style="fill:#000;fill-opacity:1;fill-rule:evenodd;stroke:none" d="m 606.926,271.616 2.835,8.504 h -5.67 z"/><g id="g308"><path id="path306" style="fill:none;stroke:#000;stroke-width:.75;stroke-linecap:butt;stroke-linejoin:round;stroke-miterlimit:10;stroke-dasharray:none;stroke-opacity:1" d="m 581.471,513.78 v -31.777 h 40.138 V 464.4"/></g></g></g></g></g></g></g></svg>